<svg width="320" height="58" viewBox="0 0 320 58" fill="none" xmlns="http://www.w3.org/2000/svg">
<path d="M26.11 54.813C25.5503 54.5986 24.4504 54.0048 23.6591 53.51C19.8768 51.1183 12.8524 46.9948 6.73496 43.5805C1.77542 40.826 1.11929 40.3972 0.868421 39.8199C0.69474 39.391 0.752634 39.3086 1.38946 38.8302C2.06489 38.3354 4.82447 36.9994 6.48408 36.3726L7.29459 36.0592L9.95769 37.6427C11.4436 38.5004 13.412 39.6714 14.3576 40.2487C15.3032 40.826 16.6926 41.6507 17.4452 42.1126C18.1979 42.5579 21.2855 44.3393 24.3153 46.0711C33.5975 51.3822 34.0028 51.6297 33.7326 51.8606C33.2116 52.2729 29.0046 54.6316 28.2713 54.912C27.2871 55.2913 27.3064 55.2913 26.11 54.813Z" fill="#59B9F8"/>
<path d="M37.8237 48.2813C37.0325 47.8029 35.4694 46.8958 34.3501 46.269C30.8186 44.2567 27.2099 42.03 27.2099 41.8651C27.2099 41.7826 27.6152 41.5187 28.1362 41.2713C30.6836 40.0177 33.9449 38.3188 34.4852 37.9724C35.0449 37.6096 35.0835 37.5106 35.1992 36.2241C35.2571 35.4653 35.2378 32.0016 35.1606 28.5048L35.0256 22.1711L32.6133 20.8021C31.2818 20.0434 30.066 19.3176 29.8923 19.2022C29.7187 19.0702 29.1783 18.7733 28.6959 18.5424C27.6538 18.0146 27.5766 18.0311 24.8942 19.5321C23.8907 20.0929 22.3083 20.9505 21.4013 21.4619L19.7417 22.369L19.6452 27.944C19.5873 31.0284 19.4715 33.6675 19.3943 33.8324C19.1242 34.3767 18.1786 34.1623 15.8821 33.0077C14.6664 32.4139 13.3734 31.6717 13.0068 31.3913L12.3506 30.8635V26.641C12.3506 24.1669 12.4471 22.0556 12.5629 21.5608C12.8524 20.4227 13.6436 19.697 15.9786 18.4764C17.9277 17.4373 19.7224 16.4642 23.1574 14.5508C25.4731 13.2808 27.2099 12.6045 27.8468 12.753C28.7538 12.9674 29.873 13.4457 30.973 14.089C31.6098 14.4519 33.6554 15.6394 35.508 16.7116C39.4255 18.9713 40.8342 19.9114 41.6061 20.8351L42.1658 21.4948L42.2236 31.6057C42.2429 37.1477 42.3587 41.7001 42.4359 41.7001C42.5324 41.7001 42.7061 41.5847 42.8412 41.4527C42.9763 41.3207 43.2078 41.2053 43.3429 41.2053C43.4973 41.2053 43.6131 41.1393 43.6131 41.0404C43.6131 40.9579 43.7096 40.8754 43.8254 40.8754C43.9412 40.8754 44.8481 40.4136 45.8323 39.8528C47.1832 39.094 47.6849 38.7147 47.7428 38.4013C47.8007 38.1704 47.8393 35.6963 47.8393 32.8758C47.8393 30.0718 47.8972 27.2843 47.9551 26.6905C48.0902 25.6184 48.0902 25.6184 49.113 25.0081C49.6919 24.6617 50.1936 24.3813 50.2515 24.3813C50.3094 24.3813 51.3322 23.8205 52.5094 23.1443C53.7058 22.468 54.7479 21.9072 54.8444 21.9072C55.076 21.9072 55.0374 39.6054 54.8058 40.1332C54.4971 40.8094 53.0883 41.8651 51.1585 42.8547C50.1936 43.3495 47.2025 44.933 44.5201 46.3844C41.8377 47.8194 39.5605 49.0235 39.4641 49.0565C39.3483 49.106 38.615 48.7431 37.8237 48.2813Z" fill="white"/>
<path d="M2.29463e-05 34.7396C2.29463e-05 34.6242 2.29463e-05 30.2037 2.29463e-05 24.9256C2.29463e-05 14.5508 -0.0192748 14.7818 1.0614 13.6932C1.33157 13.4128 2.60523 12.654 3.91748 12.0108C6.61917 10.6417 9.97699 8.89337 12.3506 7.60683C19.3557 3.7967 23.6013 1.50402 24.4311 1.04218C24.9714 0.74529 25.8398 0.365926 26.3801 0.200985C27.3257 -0.0794148 27.3643 -0.0794147 28.5222 0.283455C29.9695 0.74529 32.594 2.04832 32.7484 2.37821C32.8063 2.51016 33.4238 2.88952 34.1379 3.2194C34.8326 3.54929 37.6308 5.09973 40.3325 6.65018C43.0342 8.18413 46.8165 10.3284 48.727 11.384C52.6638 13.5612 54.4778 14.8642 54.8058 15.7384C55.1146 16.5466 54.9409 16.9755 54.0918 17.4373C52.3357 18.4105 48.3989 20.4227 48.2446 20.4227C48.0323 20.4227 47.9165 20.1094 47.7621 19.1692C47.5884 18.229 47.3762 17.9816 45.9288 17.0579C44.6938 16.2827 39.5798 13.3798 36.7624 11.8623C35.701 11.285 34.3115 10.5098 33.6747 10.1469C30.2204 8.13464 27.1135 6.40277 26.9784 6.40277C26.7468 6.40277 25.7047 6.8646 25.0872 7.24396C24.817 7.39241 23.8714 7.93672 22.9644 8.43154C22.0574 8.92636 20.2048 9.949 18.8154 10.7242C17.4452 11.4829 14.4348 13.1324 12.1383 14.3694C9.84191 15.623 7.79634 16.794 7.60336 16.9755C7.256 17.3054 7.2367 17.7342 7.17881 24.1339L7.12092 30.9625L4.5736 32.3975C0.328085 34.7891 2.29463e-05 34.954 2.29463e-05 34.7396Z" fill="#59B9F8"/>
<path d="M72.26 34.26H76.256C76.352 35.148 76.7 35.952 77.3 36.672C77.924 37.368 78.74 37.92 79.748 38.328C80.78 38.712 81.956 38.904 83.276 38.904C84.452 38.904 85.424 38.76 86.192 38.472C86.96 38.184 87.524 37.788 87.884 37.284C88.268 36.756 88.46 36.144 88.46 35.448C88.46 34.752 88.232 34.212 87.776 33.828C87.344 33.42 86.672 33.084 85.76 32.82C84.848 32.532 83.684 32.256 82.268 31.992C81.092 31.776 79.952 31.488 78.848 31.128C77.744 30.768 76.748 30.312 75.86 29.76C74.996 29.208 74.312 28.536 73.808 27.744C73.304 26.928 73.052 25.968 73.052 24.864C73.052 23.616 73.4 22.488 74.096 21.48C74.816 20.472 75.872 19.68 77.264 19.104C78.656 18.528 80.348 18.24 82.34 18.24C85.388 18.24 87.716 18.948 89.324 20.364C90.932 21.756 91.712 23.652 91.664 26.052H87.74C87.668 24.54 87.116 23.448 86.084 22.776C85.052 22.104 83.744 21.768 82.16 21.768C80.744 21.768 79.556 22.02 78.596 22.524C77.636 23.028 77.156 23.844 77.156 24.972C77.156 25.452 77.264 25.872 77.48 26.232C77.72 26.568 78.104 26.88 78.632 27.168C79.16 27.432 79.88 27.696 80.792 27.96C81.728 28.2 82.868 28.464 84.212 28.752C85.364 28.944 86.444 29.208 87.452 29.544C88.46 29.88 89.336 30.3 90.08 30.804C90.848 31.308 91.448 31.956 91.88 32.748C92.312 33.54 92.528 34.512 92.528 35.664C92.528 36.984 92.192 38.16 91.52 39.192C90.848 40.2 89.816 41.004 88.424 41.604C87.056 42.18 85.28 42.468 83.096 42.468C81.44 42.468 79.988 42.276 78.74 41.892C77.516 41.484 76.472 40.968 75.608 40.344C74.744 39.696 74.048 39 73.52 38.256C73.016 37.512 72.656 36.792 72.44 36.096C72.248 35.376 72.188 34.764 72.26 34.26ZM111.165 36.096H115.017C114.825 37.32 114.345 38.412 113.577 39.372C112.833 40.308 111.813 41.052 110.517 41.604C109.221 42.132 107.673 42.396 105.873 42.396C103.833 42.396 102.009 42.024 100.401 41.28C98.793 40.512 97.533 39.432 96.621 38.04C95.709 36.648 95.253 34.992 95.253 33.072C95.253 31.176 95.697 29.52 96.585 28.104C97.473 26.688 98.697 25.596 100.257 24.828C101.841 24.06 103.665 23.676 105.729 23.676C107.865 23.676 109.641 24.06 111.057 24.828C112.497 25.572 113.565 26.7 114.261 28.212C114.957 29.7 115.245 31.584 115.125 33.864H99.321C99.441 34.872 99.765 35.784 100.293 36.6C100.845 37.392 101.589 38.016 102.525 38.472C103.461 38.904 104.553 39.12 105.801 39.12C107.193 39.12 108.357 38.844 109.293 38.292C110.253 37.74 110.877 37.008 111.165 36.096ZM105.621 26.916C103.989 26.916 102.645 27.324 101.589 28.14C100.533 28.932 99.849 29.952 99.537 31.2H111.093C110.997 29.856 110.457 28.812 109.473 28.068C108.489 27.3 107.205 26.916 105.621 26.916ZM137.985 35.052C137.841 36.588 137.349 37.908 136.509 39.012C135.669 40.116 134.541 40.956 133.125 41.532C131.733 42.108 130.125 42.396 128.301 42.396C126.333 42.396 124.545 42.036 122.937 41.316C121.353 40.596 120.093 39.54 119.157 38.148C118.221 36.756 117.753 35.064 117.753 33.072C117.753 31.08 118.221 29.388 119.157 27.996C120.093 26.604 121.353 25.536 122.937 24.792C124.545 24.048 126.333 23.676 128.301 23.676C130.125 23.676 131.733 23.976 133.125 24.576C134.517 25.152 135.633 25.98 136.473 27.06C137.313 28.14 137.805 29.448 137.949 30.984H134.277C133.869 29.712 133.125 28.728 132.045 28.032C130.989 27.312 129.741 26.952 128.301 26.952C127.125 26.952 126.045 27.192 125.061 27.672C124.077 28.128 123.285 28.812 122.685 29.724C122.109 30.612 121.821 31.728 121.821 33.072C121.821 34.392 122.109 35.508 122.685 36.42C123.285 37.332 124.077 38.016 125.061 38.472C126.045 38.904 127.125 39.12 128.301 39.12C129.885 39.12 131.181 38.772 132.189 38.076C133.221 37.356 133.929 36.348 134.313 35.052H137.985ZM160.189 42H156.193V24.072H160.189V42ZM156.409 33.468L156.445 34.62C156.397 34.932 156.289 35.4 156.121 36.024C155.977 36.648 155.725 37.332 155.365 38.076C155.029 38.796 154.573 39.492 153.997 40.164C153.445 40.812 152.749 41.352 151.909 41.784C151.069 42.192 150.049 42.396 148.849 42.396C147.985 42.396 147.109 42.276 146.221 42.036C145.357 41.82 144.565 41.448 143.845 40.92C143.149 40.392 142.585 39.672 142.153 38.76C141.721 37.848 141.505 36.696 141.505 35.304V24.072H145.501V34.548C145.501 35.676 145.681 36.564 146.041 37.212C146.425 37.836 146.953 38.28 147.625 38.544C148.297 38.808 149.077 38.94 149.965 38.94C151.237 38.94 152.317 38.652 153.205 38.076C154.093 37.5 154.801 36.792 155.329 35.952C155.881 35.088 156.241 34.26 156.409 33.468Z" fill="white"/>
<path d="M185.627 18.672V22.2H169.283V28.968H182.675V32.352H169.283V42H165.179V18.672H185.627ZM206.174 42H202.178V24.072H206.174V42ZM202.394 33.468L202.43 34.62C202.382 34.932 202.274 35.4 202.106 36.024C201.962 36.648 201.71 37.332 201.35 38.076C201.014 38.796 200.558 39.492 199.982 40.164C199.43 40.812 198.734 41.352 197.894 41.784C197.054 42.192 196.034 42.396 194.834 42.396C193.97 42.396 193.094 42.276 192.206 42.036C191.342 41.82 190.55 41.448 189.83 40.92C189.134 40.392 188.57 39.672 188.138 38.76C187.706 37.848 187.49 36.696 187.49 35.304V24.072H191.486V34.548C191.486 35.676 191.666 36.564 192.026 37.212C192.41 37.836 192.938 38.28 193.61 38.544C194.282 38.808 195.062 38.94 195.95 38.94C197.222 38.94 198.302 38.652 199.19 38.076C200.078 37.5 200.786 36.792 201.314 35.952C201.866 35.088 202.226 34.26 202.394 33.468ZM209.795 36.096H213.503C213.695 37.008 214.187 37.752 214.979 38.328C215.771 38.88 216.839 39.156 218.183 39.156C219.047 39.156 219.719 39.06 220.199 38.868C220.703 38.676 221.051 38.412 221.243 38.076C221.459 37.74 221.567 37.356 221.567 36.924C221.567 36.396 221.411 35.988 221.099 35.7C220.811 35.412 220.379 35.172 219.803 34.98C219.227 34.788 218.507 34.62 217.643 34.476C216.755 34.26 215.879 34.02 215.015 33.756C214.151 33.492 213.371 33.168 212.675 32.784C211.979 32.376 211.427 31.872 211.019 31.272C210.635 30.648 210.443 29.892 210.443 29.004C210.443 28.188 210.623 27.456 210.983 26.808C211.367 26.136 211.895 25.572 212.567 25.116C213.239 24.66 214.031 24.312 214.943 24.072C215.855 23.808 216.851 23.676 217.931 23.676C219.491 23.676 220.787 23.928 221.819 24.432C222.875 24.936 223.667 25.644 224.195 26.556C224.747 27.468 225.023 28.512 225.023 29.688H221.495C221.303 28.728 220.931 28.032 220.379 27.6C219.827 27.168 218.999 26.952 217.895 26.952C216.791 26.952 215.951 27.144 215.375 27.528C214.799 27.912 214.511 28.44 214.511 29.112C214.511 29.616 214.691 30.024 215.051 30.336C215.435 30.624 215.975 30.876 216.671 31.092C217.367 31.308 218.183 31.524 219.119 31.74C219.983 31.98 220.799 32.232 221.567 32.496C222.335 32.736 223.019 33.048 223.619 33.432C224.243 33.792 224.735 34.272 225.095 34.872C225.455 35.472 225.635 36.216 225.635 37.104C225.635 38.208 225.335 39.156 224.735 39.948C224.159 40.74 223.319 41.352 222.215 41.784C221.111 42.192 219.779 42.396 218.219 42.396C216.851 42.396 215.663 42.24 214.655 41.928C213.671 41.616 212.843 41.208 212.171 40.704C211.523 40.2 211.019 39.66 210.659 39.084C210.299 38.508 210.047 37.956 209.903 37.428C209.783 36.9 209.747 36.456 209.795 36.096ZM233.935 16.476V20.328H229.147V16.476H233.935ZM229.507 24.072H233.539V42H229.507V24.072ZM247.866 42.396C245.874 42.396 244.086 42.036 242.502 41.316C240.918 40.596 239.67 39.54 238.758 38.148C237.846 36.756 237.39 35.064 237.39 33.072C237.39 31.104 237.846 29.424 238.758 28.032C239.67 26.616 240.918 25.536 242.502 24.792C244.086 24.048 245.874 23.676 247.866 23.676C249.858 23.676 251.634 24.048 253.194 24.792C254.754 25.536 255.978 26.616 256.866 28.032C257.778 29.424 258.234 31.104 258.234 33.072C258.234 35.064 257.778 36.756 256.866 38.148C255.978 39.54 254.754 40.596 253.194 41.316C251.634 42.036 249.858 42.396 247.866 42.396ZM247.866 39.12C249.018 39.12 250.074 38.892 251.034 38.436C251.994 37.98 252.75 37.296 253.302 36.384C253.878 35.472 254.166 34.368 254.166 33.072C254.166 31.776 253.878 30.672 253.302 29.76C252.75 28.848 251.994 28.152 251.034 27.672C250.098 27.168 249.042 26.916 247.866 26.916C246.69 26.916 245.622 27.156 244.662 27.636C243.702 28.116 242.922 28.812 242.322 29.724C241.746 30.636 241.458 31.752 241.458 33.072C241.458 34.368 241.746 35.472 242.322 36.384C242.898 37.296 243.666 37.98 244.626 38.436C245.61 38.892 246.69 39.12 247.866 39.12ZM261.81 24.072H265.806V42H261.81V24.072ZM273.366 23.676C274.398 23.676 275.346 23.82 276.21 24.108C277.098 24.396 277.854 24.84 278.478 25.44C279.126 26.016 279.618 26.736 279.954 27.6C280.314 28.464 280.494 29.484 280.494 30.66V42H276.498V31.452C276.498 29.988 276.138 28.908 275.418 28.212C274.722 27.492 273.618 27.132 272.106 27.132C270.954 27.132 269.898 27.384 268.938 27.888C268.002 28.368 267.234 29.004 266.634 29.796C266.034 30.564 265.686 31.416 265.59 32.352L265.554 30.408C265.674 29.52 265.938 28.68 266.346 27.888C266.754 27.072 267.294 26.352 267.966 25.728C268.638 25.08 269.43 24.576 270.342 24.216C271.254 23.856 272.262 23.676 273.366 23.676Z" fill="#59B9F8"/>
</svg>
